<svg width="142" height="57" viewBox="0 0 142 57" fill="none" xmlns="http://www.w3.org/2000/svg">
<path d="M46.5469 33.2891V18.1191H40.7109V33.2891H46.5469ZM36 13.4082H47.6367L51.2402 17.0293V34.3965L47.6367 38H36V13.4082ZM64.4238 33.2891V13.4082H69.1348V34.3965L65.5312 38H57.498L53.8945 34.3965V13.4082H58.6055V33.2891H64.4238ZM80.8418 25.4316L84.7969 13.4082H89.8945V38H85.1836V28.0332L82.8633 38H78.8203L76.5 28.0332V38H71.7891V13.4082H76.8867L80.8418 25.4316ZM92.5312 13.4082H105.029V18.1191H97.2422V23.3574H103.465V28.0508H97.2422V33.2891H105.029V38H92.5312V13.4082ZM119.197 27.418V13.4082H123.908V38H118.617L112.395 23.9902V38H107.684V13.4082H112.975L119.197 27.418ZM126.562 13.4082H140.361V18.1191H135.809V38H131.098V18.1191H126.562V13.4082Z" fill="#EB8815"/>
<path d="M6 14.1494H3L3 17.1494L3.00001 23.1234L3.00001 24.3977L3.91708 25.2824L7.15329 28.4045L3.90289 31.582L3.00001 32.4647V33.7273V40V43H6.00001H13.0278H16.0278V40V37.0438L20.8306 42.0721L21.7169 43H23H28H31V40V35.5V34.3304L30.2084 33.4695L25.2451 28.0713L30.1372 23.1054L31 22.2295V21L31 17L31 14H28H23.1111H21.9128L21.0443 14.8255L16.0278 19.5937V17.1494V14.1494H13.0278H6Z" stroke="black" stroke-width="6"/>
<path d="M38.3438 43.9531V40.582H37.0469V43.9531H38.3438ZM36.8008 39.5352H38.5859L39.3867 40.3398V44.1992L38.5859 45H36.8008L36 44.1992V40.3398L36.8008 39.5352ZM42.9352 42.6484V39.5352H43.982V45H42.8063L41.4234 41.8867V45H40.3766V39.5352H41.5523L42.9352 42.6484ZM46.0188 39.5352V43.9531H47.7453V45H44.9719V39.5352H46.0188ZM48.7312 45V39.5352H49.7781V45H48.7312ZM53.3227 42.6484V39.5352H54.3695V45H53.1938L51.8109 41.8867V45H50.7641V39.5352H51.9398L53.3227 42.6484ZM55.3594 39.5352H58.1367V40.582H56.4062V41.7461H57.7891V42.7891H56.4062V43.9531H58.1367V45H55.3594V39.5352ZM61.6516 39.5352V43.9531H63.3781V45H60.6047V39.5352H61.6516ZM64.3641 39.5352H67.1414V40.582H65.4109V41.7461H66.7938V42.7891H65.4109V43.9531H67.1414V45H64.3641V39.5352ZM68.932 39.5352H70.7172L71.518 40.3398V41.3984H70.475V40.582H69.1781V41.7461H70.6977L71.2367 42.2734L71.2328 42.2773L71.518 42.5547V44.1992L70.7172 45H68.932L68.1312 44.1992V43.1367H69.1781V43.9531H70.475V42.7891H68.9125L68.1312 41.9922V40.3398L68.932 39.5352ZM73.3086 39.5352H75.0938L75.8945 40.3398V41.3984H74.8516V40.582H73.5547V41.7461H75.0742L75.6133 42.2734L75.6094 42.2773L75.8945 42.5547V44.1992L75.0938 45H73.3086L72.5078 44.1992V43.1367H73.5547V43.9531H74.8516V42.7891H73.2891L72.5078 41.9922V40.3398L73.3086 39.5352ZM79.2281 43.9531V40.582H77.9313V43.9531H79.2281ZM77.6852 39.5352H79.4703L80.2711 40.3398V44.1992L79.4703 45H77.6852L76.8844 44.1992V40.3398L77.6852 39.5352ZM83.8195 42.6484V39.5352H84.8664V45H83.6906L82.3078 41.8867V45H81.2609V39.5352H82.4367L83.8195 42.6484ZM89.6937 43.0234L89.3148 41.5312L88.9125 43.0234H89.6937ZM88.6312 44.0703L88.3812 45H87.3344L88.807 39.5352H89.8539L91.2406 45H90.1977L89.9594 44.0703H88.6312ZM94.7852 42.6484V39.5352H95.832V45H94.6562L93.2734 41.8867V45H92.2266V39.5352H93.4023L94.7852 42.6484ZM99.1656 43.9531V40.582H97.8688V43.9531H99.1656ZM96.8219 39.5352H99.4078L100.209 40.3398V44.1992L99.4078 45H96.8219V39.5352ZM104.688 42.4805L105.567 39.5352H106.7V45H105.653V42.7852L105.137 45H104.239L103.723 42.7852V45H102.677V39.5352H103.809L104.688 42.4805ZM107.686 39.5352H110.463V40.582H108.733V41.7461H110.116V42.7891H108.733V43.9531H110.463V45H107.686V39.5352ZM114.012 42.6484V39.5352H115.059V45H113.883L112.5 41.8867V45H111.453V39.5352H112.629L114.012 42.6484ZM116.048 39.5352H119.115V40.582H118.103V45H117.056V40.582H116.048V39.5352ZM122.448 43.9531V40.582H121.152V43.9531H122.448ZM120.905 39.5352H122.691L123.491 40.3398V44.1992L122.691 45H120.905L120.105 44.1992V40.3398L120.905 39.5352ZM126.825 41.8789V40.582H125.528V41.8789H126.825ZM124.481 39.5352H127.067L127.868 40.3398V41.9922L127.583 42.2773L127.868 42.5547V45H126.825V42.9219H125.528V45H124.481V39.5352ZM128.858 45V39.5352H129.905V45H128.858ZM133.449 42.6484V39.5352H134.496V45H133.32L131.938 41.8867V45H130.891V39.5352H132.066L133.449 42.6484ZM136.287 39.5352H138.072L138.873 40.3398V41.3984H137.83V40.582H136.533V43.9531H137.83V42.7891H137.228V41.7461H138.873V44.1992L138.072 45H136.287L135.486 44.1992V40.3398L136.287 39.5352Z" fill="black"/>
</svg>
